<?xml version="1.0" encoding="utf-8"?>
<!-- Generator: Adobe Illustrator 18.0.0, SVG Export Plug-In . SVG Version: 6.00 Build 0)  -->
<!DOCTYPE svg PUBLIC "-//W3C//DTD SVG 1.1//EN" "http://www.w3.org/Graphics/SVG/1.1/DTD/svg11.dtd">
<svg version="1.1" id="Livello_1" xmlns="http://www.w3.org/2000/svg" xmlns:xlink="http://www.w3.org/1999/xlink" x="0px" y="0px"
	 viewBox="0 0 96.7 92.7" enable-background="new 0 0 96.7 92.7" xml:space="preserve">
<g>
	<g>
		<g>
			<path fill="#C32127" d="M73.3,69.4L84,80c-7.4,7.4-16.2,11-26.6,11C47,91,38.1,87.4,30.8,80c-7.4-7.4-11-16.2-11-26.6
				c0-10.4,3.6-19.2,11-26.6c7.4-7.4,16.2-11,26.6-11c10.4,0,19.2,3.6,26.6,11c9.5,9.6,12.9,21.1,10.4,34.1l-58.3,0
				c1.2,3.2,3,6,5.4,8.4c4.4,4.4,9.8,6.6,15.9,6.6C63.5,76,69,73.7,73.3,69.4z M41.5,37.5C39,40,37.2,42.7,36,45.9l42.7,0
				c-1.1-3.2-2.9-5.9-5.4-8.4c-4.4-4.4-9.8-6.6-15.9-6.6C51.2,30.8,45.8,33.1,41.5,37.5z"/>
		</g>
	</g>
	<path fill="#4F4F4F" stroke="#FFFFFF" stroke-width="0.5" stroke-miterlimit="10" d="M26.6,1.7C41.6,5.5,39.2,22.1,41.3,34
		c-10.7-7.4-21-26.1-17.2-31.1c0,0,0.5-0.7,1-0.9C25.5,1.8,26.6,1.7,26.6,1.7z"/>
	<path fill="#4F4F4F" stroke="#FFFFFF" stroke-width="0.5" stroke-miterlimit="10" d="M8.1,31.7c4.1,5.2,18.4,10.6,25.2,8.8
		c-4.4-3.6-7.8-6.5-11.8-10.3c-2.8-2.8-4.6-4.7-8.2-6c-4.2-1.5-9.5,1.7-6.7,5.7C7.9,31.6,8.1,31.7,8.1,31.7z"/>
	<path fill="#4F4F4F" stroke="#FFFFFF" stroke-width="0.5" stroke-miterlimit="10" d="M2.7,50.2c8.3,6.3,21,4.3,29.6,1
		c-5.9,0.1-12.4-1-18.1-3.5c-2-1.1-5.9-5.4-7.3-5.3C2.2,42.1,0,46.4,2.7,50.2"/>
</g>
</svg>
