<?xml version="1.0" encoding="utf-8"?>
<!-- Generator: Adobe Illustrator 18.0.0, SVG Export Plug-In . SVG Version: 6.00 Build 0)  -->
<!DOCTYPE svg PUBLIC "-//W3C//DTD SVG 1.1//EN" "http://www.w3.org/Graphics/SVG/1.1/DTD/svg11.dtd">
<svg version="1.1" id="Livello_1" xmlns="http://www.w3.org/2000/svg" xmlns:xlink="http://www.w3.org/1999/xlink" x="0px" y="0px"
	 viewBox="0 0 471 129" enable-background="new 0 0 471 129" xml:space="preserve">
<g>
	<g>
		<g>
			<path fill="#C32127" d="M88.3,102.9L99,113.6c-7.4,7.4-16.2,11-26.6,11c-10.4,0-19.2-3.6-26.6-11c-7.4-7.4-11-16.2-11-26.6
				c0-10.4,3.6-19.2,11-26.6c7.4-7.4,16.2-11,26.6-11c10.4,0,19.2,3.6,26.6,11c9.5,9.6,12.9,21.1,10.4,34.1l-58.3,0
				c1.2,3.2,3,6,5.4,8.4c4.4,4.4,9.8,6.6,15.9,6.6C78.6,109.5,84,107.3,88.3,102.9z M56.5,71c-2.4,2.6-4.2,5.3-5.4,8.4l42.7,0
				c-1.1-3.2-2.9-5.9-5.4-8.4c-4.4-4.4-9.8-6.6-15.9-6.6C66.2,64.4,60.8,66.7,56.5,71z"/>
		</g>
	</g>
	<g opacity="0.5">
		<path fill="#C0BF96" d="M449.7,68.2c6.1,0.9,11.3,1.7,13-4.8c1.7-6.1-2.2-10.8-6.9-14.3c5.2-0.4,8.7-7.4,7.8-12.1
			c-1.7-6.9-8.7-7.4-14.7-7.8c4.8-15.6-17.3-16.9-26-9.1c0,0-3.6,4.1-4.1,5.1c-0.6,1-1.8,4.3-1.8,4.3l-0.5,1.8l3.1,0
			c0,0,2.1,0.4,3.8,0.8c1.7,0.3,6.8,1.8,6.8,1.8l5.7,3.3l3.6,3.9l3.8,4.4l2.8,5.5c0,0,1.6,5.4,1.6,5.7c0,0.3,0.6,6.2,0.6,6.2
			l-0.8,4.2l0.1,1l1.7,0.3"/>
	</g>
	<g opacity="0.5">
		<path fill="#C0BF96" d="M61.9,44.9c-5.2-6.9-9.3-23.2-20.6-22.3c-11.3,0.9-14.7,19.1-9.5,26.9C14.5,34.7-0.3,59,21.4,65.9
			C3.2,62.5,3.2,88.5,19.7,82.4l4.1-1.6l4.3-0.6l5.2,0.8c0,0-0.4-1.8,0.3-5.1c0.4-2,2.7-7,2.7-7s1.9-4.7,4.1-7.4
			c2.6-3.3,6.2-6.1,6.2-6.1s6.5-3.6,9.5-5c3.1-1.4,6.1-2.1,7.7-2.6C62.9,46,61.9,44.9,61.9,44.9z"/>
	</g>
	<g>
		<g>
			<path fill="#A96BAD" stroke="#A86AAC" stroke-width="1.3" stroke-miterlimit="10" d="M318.2,34.1v11.9h-11.9v22.2
				c0,3.7,1.3,6.9,3.9,9.5c2.6,2.6,5.7,3.9,9.4,3.9v11.9c-7,0-12.9-2.5-17.8-7.3c-4.9-4.9-7.3-10.9-7.3-17.9V4.4h11.9v29.6H318.2z"
				/>
			<path fill="#A96BAD" stroke="#A86AAC" stroke-width="1.3" stroke-miterlimit="10" d="M336,34.1l5.9,5.9
				c5.3-3.9,11.3-5.9,17.8-5.9v11.9c-4.9,0-9.1,1.8-12.6,5.2c-3.4,3.4-5.2,7.7-5.2,12.6v29.6h-11.9V34.1H336z"/>
			<path fill="#A96BAD" stroke="#A86AAC" stroke-width="1.3" stroke-miterlimit="10" d="M377.1,52.4v40.9h-11.8V52.4H377.1z"/>
			<path fill="#A96BAD" stroke="#A86AAC" stroke-width="1.3" stroke-miterlimit="10" d="M416,34.1c8.2,0,15.2,2.8,21,8.7
				c5.8,5.8,8.7,12.8,8.7,21c0,8.2-2.8,15.2-8.7,21c-5.8,5.8-12.8,8.7-21,8.7c-6.5,0-12.4-2-17.8-5.9V123h-11.9V34.1h5.9l5.9,5.9
				C403.5,36.1,409.4,34.1,416,34.1z M416,45.9c-4.9,0-9.1,1.8-12.6,5.2c-3.4,3.4-5.2,7.7-5.2,12.6c0,4.9,1.8,9.1,5.2,12.6
				c3.4,3.4,7.7,5.2,12.6,5.2c4.9,0,9.1-1.8,12.6-5.2c3.4-3.4,5.2-7.7,5.2-12.6c0-4.9-1.8-9.1-5.2-12.6
				C425.1,47.7,420.9,45.9,416,45.9z"/>
		</g>
	</g>
	<g>
		<path fill="#C32127" d="M115.1,50.6l17.5,40.1L150,50.6h11.6l-23.2,53.6h-11.7l-23.3-53.6H115.1z"/>
		<path fill="#C32127" d="M196.1,88.8l7.6,7.6c-5.3,5.3-11.6,7.8-19,7.8c-7.4,0-13.7-2.6-19-7.8c-5.3-5.3-7.8-11.6-7.8-19
			c0-7.4,2.6-13.7,7.8-19c5.3-5.3,11.6-7.8,19-7.8c7.4,0,13.7,2.6,19,7.8c6.8,6.9,9.2,15,7.4,24.3h-41.6c0.9,2.3,2.1,4.3,3.9,6
			c3.1,3.1,7,4.7,11.4,4.7C189.1,93.5,193,91.9,196.1,88.8z M173.3,66c-1.7,1.8-3,3.8-3.9,6h30.5c-0.8-2.3-2-4.2-3.9-6
			c-3.1-3.1-7-4.7-11.4-4.7C180.3,61.3,176.5,62.9,173.3,66z"/>
		<path fill="#C32127" d="M227.7,76.7v27.5H217V50.6h5.4l5.4,5.4c4.8-3.5,10.2-5.4,16.1-5.4c7.4,0,13.7,2.6,19,7.8
			c5.3,5.3,7.8,11.6,7.8,19v26.8h-10.7V77.4c0-4.4-1.6-8.3-4.7-11.4c-3.1-3.1-7-4.7-11.4-4.7c-4.4,0-8,1.5-11.2,4.5
			C229.5,68.8,227.8,72.5,227.7,76.7z"/>
		<path fill="#C32127" d="M300.2,44.9v11.9h-11.9V79c0,3.7,1.3,6.9,3.9,9.5c2.6,2.6,5.7,3.9,9.4,3.9v11.9c-7,0-12.9-2.5-17.8-7.3
			C279,92,276.5,86,276.5,79V15.3h11.9v29.6H300.2z"/>
	</g>
	<g>
		<path fill="#C22328" d="M126.3,108.5h1.7v14.8h-1.7V108.5z"/>
		<path fill="#C22328" d="M136.7,110.6h-1.7v-2.1h1.7V110.6z M134.9,112.5h1.7v10.7h-1.7V112.5z"/>
		<path fill="#C22328" d="M148.3,123.2h-1.9l-3.9-10.7h2l3,8.9h0l2.9-8.9h1.8L148.3,123.2z"/>
		<path fill="#C22328" d="M167,119.8c-0.5,2.4-2.2,3.6-4.5,3.6c-3.4,0-5-2.4-5.1-5.6c0-3.2,2.1-5.6,5-5.6c3.8,0,4.9,3.5,4.8,6.1h-8
			c-0.1,1.9,1,3.5,3.3,3.5c1.4,0,2.4-0.7,2.8-2.1H167z M165.3,116.9c-0.1-1.7-1.3-3-3.1-3c-1.8,0-2.9,1.4-3,3H165.3z"/>
		<path fill="#C22328" d="M184.7,110.6H183v-2.1h1.7V110.6z M183,112.5h1.7v10.7H183V112.5z"/>
		<path fill="#C22328" d="M194,112.5h2.1v1.5H194v6.6c0,0.8,0.2,1,1.3,1h0.8v1.5h-1.3c-1.8,0-2.5-0.4-2.5-2.3v-6.8h-1.8v-1.5h1.8
			v-3.2h1.7V112.5z"/>
		<path fill="#C22328" d="M212.7,114.1h-1.8v-1.5h1.8V111c0-1.7,1-2.6,2.9-2.6c0.3,0,0.8,0.1,1.1,0.2v1.5c-0.3-0.1-0.7-0.1-1-0.1
			c-0.8,0-1.3,0.3-1.3,1.2v1.5h2.1v1.5h-2.1v9.1h-1.7V114.1z"/>
		<path fill="#C22328" d="M226.8,112.3c3.4,0,5.2,2.5,5.2,5.6c0,3.1-1.8,5.6-5.2,5.6c-3.4,0-5.2-2.5-5.2-5.6
			C221.6,114.8,223.4,112.3,226.8,112.3z M226.8,121.9c1.8,0,3.3-1.4,3.3-4c0-2.6-1.5-4.1-3.3-4.1c-1.8,0-3.3,1.4-3.3,4.1
			C223.5,120.5,225,121.9,226.8,121.9z"/>
		<path fill="#C22328" d="M238.1,112.5h1.6v2.3h0c0.8-1.7,2-2.6,3.9-2.5v1.9c-2.8,0-3.8,1.6-3.8,4.3v4.8h-1.8V112.5z"/>
		<path fill="#C22328" d="M258.8,112.5h1.6v2.3h0c0.8-1.7,2-2.6,3.9-2.5v1.9c-2.8,0-3.8,1.6-3.8,4.3v4.8h-1.7V112.5z"/>
		<path fill="#C22328" d="M278.6,119.8c-0.5,2.4-2.2,3.6-4.5,3.6c-3.4,0-5-2.4-5.1-5.6c0-3.2,2.1-5.6,5-5.6c3.8,0,4.9,3.5,4.8,6.1
			h-8c-0.1,1.9,1,3.5,3.3,3.5c1.4,0,2.4-0.7,2.8-2.1H278.6z M276.9,116.9c-0.1-1.7-1.3-3-3.1-3c-1.8,0-2.9,1.4-3,3H276.9z"/>
		<path fill="#C22328" d="M294.1,123.2c-0.3,0.2-0.7,0.3-1.3,0.3c-0.9,0-1.5-0.5-1.5-1.7c-1,1.1-2.3,1.7-3.7,1.7
			c-1.9,0-3.5-0.9-3.5-3c0-2.4,1.8-2.9,3.6-3.3c1.9-0.4,3.6-0.2,3.6-1.6c0-1.5-1.3-1.8-2.4-1.8c-1.5,0-2.6,0.5-2.7,2h-1.7
			c0.1-2.6,2.1-3.6,4.5-3.6c1.9,0,4,0.4,4,2.9v5.5c0,0.8,0,1.2,0.6,1.2c0.1,0,0.3,0,0.5-0.1V123.2z M291.2,117.7
			c-0.7,0.5-2,0.5-3.2,0.7c-1.2,0.2-2.1,0.6-2.1,1.9c0,1.2,1,1.6,2.1,1.6c2.3,0,3.2-1.4,3.2-2.4V117.7z"/>
		<path fill="#C22328" d="M299.9,108.5h1.7v14.8h-1.7V108.5z"/>
	</g>
	<g>
		<g>
			<path fill="#4F4F4F" d="M64,47.6c-1.4-2.8-3.4-5.2-4.8-8c-2.2-4-4.1-8.4-7.1-11.9c-4.6-5.4-11.3-7.8-17.3-2.9
				c-5.6,4.6-6.7,13.8-5.3,20.4c0.1,0.6,0.4,1.3,0.6,1.9c0.3,0.7,1.4,1.7,0.7,1.1c-1.3-1-2.8-2-4.3-2.6c-3.3-1.3-6.6-1.8-10-0.6
				c-4.9,1.7-7.3,7.1-6.1,11.9c0.7,2.8,2.8,4.9,5.1,6.5c1.6,1.2,3.2,1.6,4.7,1.8c-1.7-0.3-3.4-0.2-5,0.1
				C4.3,67.3,4.5,84.8,16.6,83.3c2.3-0.3,4.6-1.3,6.7-2.1c0.4-0.1,0.2-0.8-0.2-0.6c-5.4,1.9-13.1,4.4-15.2-3.2
				C5.6,69.2,14.4,64.9,21.1,66c0.4,0.1,0.6-0.5,0.2-0.6c-6.6-2.3-13.3-8-9.4-15.6c4.1-7.9,14.2-4.7,19.5-0.4
				c0.3,0.2,0.7-0.1,0.5-0.4c-5.6-9.3-0.6-29.9,13.3-25.9c5.8,1.7,9.2,8.9,11.8,13.8c2,3.8,4.5,7.2,6.4,11
				C63.6,48.4,64.2,48,64,47.6L64,47.6z"/>
		</g>
	</g>
	<g>
		<path fill="#4F4F4F" d="M41.8,34.9C55.3,38.3,53.1,53.2,55,63.8C45.4,57.1,36.2,40.4,39.6,36c0,0,0.5-0.6,0.9-0.8
			C40.9,35,41.8,34.9,41.8,34.9z"/>
	</g>
	<g>
		<path fill="#4F4F4F" d="M25.3,61.8c3.7,4.6,16.5,9.5,22.6,7.9c-3.9-3.2-7-5.8-10.5-9.2c-2.5-2.5-4.1-4.2-7.3-5.4
			c-3.8-1.3-8.5,1.5-6,5.1C25.1,61.7,25.3,61.8,25.3,61.8z"/>
	</g>
	<g>
		<path fill="#4F4F4F" d="M434.7,24.4c-11.2,2.8-9.4,15.1-11,24c8-5.5,15.6-19.4,12.8-23.1c0,0-0.4-0.5-0.7-0.6
			C435.5,24.5,434.7,24.4,434.7,24.4z"/>
	</g>
	<g>
		<path fill="#4F4F4F" d="M448.4,46.7c-3.1,3.8-13.7,7.9-18.8,6.5c3.3-2.7,5.8-4.8,8.8-7.7c2.1-2.1,3.4-3.5,6.1-4.5
			c3.1-1.1,7,1.2,5,4.3C448.6,46.7,448.4,46.7,448.4,46.7z"/>
	</g>
	<g>
		<path fill="#4F4F4F" d="M454.7,60.9c-3.5,4.1-10.1,4.4-14.8,3.7c3-0.6,6.2-1.8,8.7-3.7c0.9-0.8,2.4-3.4,3.1-3.4
			C454.1,56.7,455.6,58.6,454.7,60.9"/>
	</g>
	<g>
		<path fill="#4F4F4F" d="M20.5,78.3c7.4,5.7,18.8,3.9,26.4,0.9c-5.3,0.1-11.1-0.9-16.2-3.1c-1.8-1-5.3-4.8-6.6-4.7
			C20,71,18.1,74.9,20.5,78.3"/>
	</g>
	<g>
		<g>
			<path fill="#4F4F4F" d="M449.6,68.5c4.5,0.6,9.5,1.6,12.4-2.6c4-5.7-0.5-12.5-4.9-16.2c-0.3-0.3,2.9-2.3,3.6-3
				c1.6-1.6,2.8-4.3,3.1-6.5c0.7-6-3.3-9.5-8.8-10.7c-2.2-0.5-5.7,0.4-5.4-2.5c0.3-2.2,0.1-4.2-0.9-6.2c-1.8-3.8-6.4-5.1-10.2-5.6
				c-10.7-1.2-20.1,5.5-22.5,16c-0.1,0.4,0.5,0.6,0.6,0.2c1.9-8.4,7.9-13.8,16.2-15.3c8.8-1.6,18.3,2.8,15.5,13.1
				c-0.1,0.2,0.1,0.4,0.3,0.4c5,0.4,10.5,0.6,13.5,5.2c3.4,5.1-1.1,13.1-6.6,14.1c-0.3,0.1-0.3,0.4-0.1,0.6
				c4.6,3.5,8.1,7.8,6.8,13.9c-1.4,6.3-7.9,5.2-12.6,4.5C449.3,67.8,449.2,68.4,449.6,68.5L449.6,68.5z"/>
		</g>
	</g>
	<path fill="#A96BAD" stroke="#A86AAC" stroke-width="1.5299" stroke-miterlimit="10" d="M371.5,15c2.4,0,4.5,0.8,6,2.5
		c1.7,1.5,2.5,3.6,2.5,6c0,2.4-0.8,4.3-2.5,5.9c-1.7,1.7-3.6,2.5-6,2.5c-2.4,0-4.3-0.8-5.9-2.5c-1.7-1.5-2.5-3.5-2.5-5.9
		c0-2.4,0.8-4.3,2.5-6C367.2,15.8,369.1,15,371.5,15z"/>
</g>
</svg>
