<?xml version="1.0" encoding="utf-8"?>
<!-- Generator: Adobe Illustrator 18.0.0, SVG Export Plug-In . SVG Version: 6.00 Build 0)  -->
<!DOCTYPE svg PUBLIC "-//W3C//DTD SVG 1.1//EN" "http://www.w3.org/Graphics/SVG/1.1/DTD/svg11.dtd">
<svg version="1.1" id="Livello_1" xmlns="http://www.w3.org/2000/svg" xmlns:xlink="http://www.w3.org/1999/xlink" x="0px" y="0px"
	 viewBox="0 0 467 198.9" enable-background="new 0 0 467 198.9" xml:space="preserve">
<g>
	<g>
		<g>
			<path fill="#C32127" d="M86.3,175.8L97,186.5c-7.4,7.4-16.2,11-26.6,11c-10.4,0-19.2-3.6-26.6-11c-7.4-7.4-11-16.2-11-26.6
				c0-10.4,3.6-19.2,11-26.6c7.4-7.4,16.2-11,26.6-11c10.4,0,19.2,3.6,26.6,11c9.5,9.6,12.9,21.1,10.4,34.1l-58.3,0
				c1.2,3.2,3,6,5.4,8.4c4.4,4.4,9.8,6.6,15.9,6.6C76.6,182.4,82,180.2,86.3,175.8z M54.5,143.9c-2.4,2.6-4.2,5.3-5.4,8.4l42.7,0
				c-1.1-3.2-2.9-5.9-5.4-8.4c-4.4-4.4-9.8-6.6-15.9-6.6C64.2,137.3,58.8,139.6,54.5,143.9z"/>
		</g>
	</g>
	<g opacity="0.5">
		<path fill="#C0BF96" d="M447.7,141.1c6.1,0.9,11.3,1.7,13-4.8c1.7-6.1-2.2-10.8-6.9-14.3c5.2-0.4,8.7-7.4,7.8-12.1
			c-1.7-6.9-8.7-7.4-14.7-7.8c4.8-15.6-17.3-16.9-26-9.1c0,0-3.6,4.1-4.1,5.1c-0.6,1-1.8,4.3-1.8,4.3l-0.5,1.8l3.1,0
			c0,0,2.1,0.4,3.8,0.8c1.7,0.3,6.8,1.8,6.8,1.8l5.7,3.3l3.6,3.9l3.8,4.4l2.8,5.5c0,0,1.6,5.4,1.6,5.7c0,0.3,0.6,6.2,0.6,6.2
			l-0.8,4.2l0.1,1l1.7,0.3"/>
	</g>
	<g opacity="0.5">
		<path fill="#C0BF96" d="M59.9,117.8c-5.2-6.9-9.3-23.2-20.6-22.3c-11.3,0.9-14.7,19.1-9.5,26.9c-17.3-14.7-32.1,9.5-10.4,16.5
			c-18.2-3.5-18.2,22.5-1.7,16.5l4.1-1.6l4.3-0.6l5.2,0.8c0,0-0.4-1.8,0.3-5.1c0.4-2,2.7-7,2.7-7s1.9-4.7,4.1-7.4
			c2.6-3.3,6.2-6.1,6.2-6.1s6.5-3.6,9.5-5c3.1-1.4,6.1-2.1,7.7-2.6C60.9,118.9,59.9,117.8,59.9,117.8z"/>
	</g>
	<g>
		<g>
			<path fill="#A96BAD" stroke="#A86AAC" stroke-width="1.3" stroke-miterlimit="10" d="M316.2,107v11.9h-11.9V141
				c0,3.7,1.3,6.9,3.9,9.5c2.6,2.6,5.7,3.9,9.4,3.9v11.9c-7,0-12.9-2.5-17.8-7.3c-4.9-4.9-7.3-10.9-7.3-17.9V77.3h11.9V107H316.2z"
				/>
			<path fill="#A96BAD" stroke="#A86AAC" stroke-width="1.3" stroke-miterlimit="10" d="M334,107l5.9,5.9c5.3-3.9,11.3-5.9,17.8-5.9
				v11.9c-4.9,0-9.1,1.8-12.6,5.2c-3.4,3.4-5.2,7.7-5.2,12.6v29.6h-11.9V107H334z"/>
			<path fill="#A96BAD" stroke="#A86AAC" stroke-width="1.3" stroke-miterlimit="10" d="M375.1,125.3v40.9h-11.8v-40.9H375.1z"/>
			<path fill="#A96BAD" stroke="#A86AAC" stroke-width="1.3" stroke-miterlimit="10" d="M414,107c8.2,0,15.2,2.8,21,8.7
				c5.8,5.8,8.7,12.8,8.7,21c0,8.2-2.8,15.2-8.7,21c-5.8,5.8-12.8,8.7-21,8.7c-6.5,0-12.4-2-17.8-5.9v35.6h-11.9V107h5.9l5.9,5.9
				C401.5,109,407.4,107,414,107z M414,118.8c-4.9,0-9.1,1.8-12.6,5.2c-3.4,3.4-5.2,7.7-5.2,12.6c0,4.9,1.8,9.1,5.2,12.6
				c3.4,3.4,7.7,5.2,12.6,5.2c4.9,0,9.1-1.8,12.6-5.2c3.4-3.4,5.2-7.7,5.2-12.6c0-4.9-1.8-9.1-5.2-12.6
				C423.1,120.6,418.9,118.8,414,118.8z"/>
		</g>
	</g>
	<g>
		<path fill="#C32127" d="M113.1,123.5l17.5,40.1l17.4-40.1h11.6l-23.2,53.6h-11.7l-23.3-53.6H113.1z"/>
		<path fill="#C32127" d="M194.1,161.7l7.6,7.6c-5.3,5.3-11.6,7.8-19,7.8c-7.4,0-13.7-2.6-19-7.8c-5.3-5.3-7.8-11.6-7.8-19
			c0-7.4,2.6-13.7,7.8-19c5.3-5.3,11.6-7.8,19-7.8c7.4,0,13.7,2.6,19,7.8c6.8,6.9,9.2,15,7.4,24.3h-41.6c0.9,2.3,2.1,4.3,3.9,6
			c3.1,3.1,7,4.7,11.4,4.7C187.1,166.4,191,164.8,194.1,161.7z M171.3,138.9c-1.7,1.8-3,3.8-3.9,6h30.5c-0.8-2.3-2-4.2-3.9-6
			c-3.1-3.1-7-4.7-11.4-4.7C178.3,134.2,174.5,135.8,171.3,138.9z"/>
		<path fill="#C32127" d="M225.7,149.6v27.5H215v-53.6h5.4l5.4,5.4c4.8-3.5,10.2-5.4,16.1-5.4c7.4,0,13.7,2.6,19,7.8
			c5.3,5.3,7.8,11.6,7.8,19v26.8h-10.7v-26.8c0-4.4-1.6-8.3-4.7-11.4c-3.1-3.1-7-4.7-11.4-4.7c-4.4,0-8,1.5-11.2,4.5
			C227.5,141.7,225.8,145.4,225.7,149.6z"/>
		<path fill="#C32127" d="M298.2,117.8v11.9h-11.9v22.2c0,3.7,1.3,6.9,3.9,9.5c2.6,2.6,5.7,3.9,9.4,3.9v11.9c-7,0-12.9-2.5-17.8-7.3
			c-4.9-4.9-7.3-10.9-7.3-17.9V88.2h11.9v29.6H298.2z"/>
	</g>
	<g>
		<path fill="#C22328" d="M124.3,181.4h1.7v14.8h-1.7V181.4z"/>
		<path fill="#C22328" d="M134.7,183.5h-1.7v-2.1h1.7V183.5z M132.9,185.4h1.7v10.7h-1.7V185.4z"/>
		<path fill="#C22328" d="M146.3,196.1h-1.9l-3.9-10.7h2l3,8.9h0l2.9-8.9h1.8L146.3,196.1z"/>
		<path fill="#C22328" d="M165,192.7c-0.5,2.4-2.2,3.6-4.5,3.6c-3.4,0-5-2.4-5.1-5.6c0-3.2,2.1-5.6,5-5.6c3.8,0,4.9,3.5,4.8,6.1h-8
			c-0.1,1.9,1,3.5,3.3,3.5c1.4,0,2.4-0.7,2.8-2.1H165z M163.3,189.8c-0.1-1.7-1.3-3-3.1-3c-1.8,0-2.9,1.4-3,3H163.3z"/>
		<path fill="#C22328" d="M182.7,183.5H181v-2.1h1.7V183.5z M181,185.4h1.7v10.7H181V185.4z"/>
		<path fill="#C22328" d="M192,185.4h2.1v1.5H192v6.6c0,0.8,0.2,1,1.3,1h0.8v1.5h-1.3c-1.8,0-2.5-0.4-2.5-2.3V187h-1.8v-1.5h1.8
			v-3.2h1.7V185.4z"/>
		<path fill="#C22328" d="M210.7,187h-1.8v-1.5h1.8v-1.6c0-1.7,1-2.6,2.9-2.6c0.3,0,0.8,0.1,1.1,0.2v1.5c-0.3-0.1-0.7-0.1-1-0.1
			c-0.8,0-1.3,0.3-1.3,1.2v1.5h2.1v1.5h-2.1v9.1h-1.7V187z"/>
		<path fill="#C22328" d="M224.8,185.2c3.4,0,5.2,2.5,5.2,5.6c0,3.1-1.8,5.6-5.2,5.6c-3.4,0-5.2-2.5-5.2-5.6
			C219.6,187.7,221.4,185.2,224.8,185.2z M224.8,194.8c1.8,0,3.3-1.4,3.3-4c0-2.6-1.5-4.1-3.3-4.1c-1.8,0-3.3,1.4-3.3,4.1
			C221.5,193.4,223,194.8,224.8,194.8z"/>
		<path fill="#C22328" d="M236.1,185.4h1.6v2.3h0c0.8-1.7,2-2.6,3.9-2.5v1.9c-2.8,0-3.8,1.6-3.8,4.3v4.8h-1.8V185.4z"/>
		<path fill="#C22328" d="M256.8,185.4h1.6v2.3h0c0.8-1.7,2-2.6,3.9-2.5v1.9c-2.8,0-3.8,1.6-3.8,4.3v4.8h-1.7V185.4z"/>
		<path fill="#C22328" d="M276.6,192.7c-0.5,2.4-2.2,3.6-4.5,3.6c-3.4,0-5-2.4-5.1-5.6c0-3.2,2.1-5.6,5-5.6c3.8,0,4.9,3.5,4.8,6.1
			h-8c-0.1,1.9,1,3.5,3.3,3.5c1.4,0,2.4-0.7,2.8-2.1H276.6z M274.9,189.8c-0.1-1.7-1.3-3-3.1-3c-1.8,0-2.9,1.4-3,3H274.9z"/>
		<path fill="#C22328" d="M292.1,196.1c-0.3,0.2-0.7,0.3-1.3,0.3c-0.9,0-1.5-0.5-1.5-1.7c-1,1.1-2.3,1.7-3.7,1.7
			c-1.9,0-3.5-0.9-3.5-3c0-2.4,1.8-2.9,3.6-3.3c1.9-0.4,3.6-0.2,3.6-1.6c0-1.5-1.3-1.8-2.4-1.8c-1.5,0-2.6,0.5-2.7,2h-1.7
			c0.1-2.6,2.1-3.6,4.5-3.6c1.9,0,4,0.4,4,2.9v5.5c0,0.8,0,1.2,0.6,1.2c0.1,0,0.3,0,0.5-0.1V196.1z M289.2,190.6
			c-0.7,0.5-2,0.5-3.2,0.7c-1.2,0.2-2.1,0.6-2.1,1.9c0,1.2,1,1.6,2.1,1.6c2.3,0,3.2-1.4,3.2-2.4V190.6z"/>
		<path fill="#C22328" d="M297.9,181.4h1.7v14.8h-1.7V181.4z"/>
	</g>
	<g>
		<g>
			<path fill="#4F4F4F" d="M62,120.6c-1.4-2.8-3.4-5.2-4.8-8c-2.2-4-4.1-8.4-7.1-11.9c-4.6-5.4-11.3-7.8-17.3-2.9
				c-5.6,4.6-6.7,13.8-5.3,20.4c0.1,0.6,0.4,1.3,0.6,1.9c0.3,0.7,1.4,1.7,0.7,1.1c-1.3-1-2.8-2-4.3-2.6c-3.3-1.3-6.6-1.8-10-0.6
				c-4.9,1.7-7.3,7.1-6.1,11.9c0.7,2.8,2.8,4.9,5.1,6.5c1.6,1.2,3.2,1.6,4.7,1.8c-1.7-0.3-3.4-0.2-5,0.1
				c-10.9,1.9-10.7,19.4,1.4,17.9c2.3-0.3,4.6-1.3,6.7-2.1c0.4-0.1,0.2-0.8-0.2-0.6c-5.4,1.9-13.1,4.4-15.2-3.2
				c-2.3-8.2,6.5-12.5,13.2-11.4c0.4,0.1,0.6-0.5,0.2-0.6c-6.6-2.3-13.3-8-9.4-15.6c4.1-7.9,14.2-4.7,19.5-0.4
				c0.3,0.2,0.7-0.1,0.5-0.4c-5.6-9.3-0.6-29.9,13.3-25.9c5.8,1.7,9.2,8.9,11.8,13.8c2,3.8,4.5,7.2,6.4,11
				C61.6,121.3,62.2,120.9,62,120.6L62,120.6z"/>
		</g>
	</g>
	<g>
		<path fill="#4F4F4F" d="M39.8,107.8c13.5,3.4,11.3,18.2,13.2,28.9c-9.6-6.6-18.8-23.4-15.4-27.8c0,0,0.5-0.6,0.9-0.8
			C38.9,107.9,39.8,107.8,39.8,107.8z"/>
	</g>
	<g>
		<path fill="#4F4F4F" d="M23.3,134.7c3.7,4.6,16.5,9.5,22.6,7.9c-3.9-3.2-7-5.8-10.5-9.2c-2.5-2.5-4.1-4.2-7.3-5.4
			c-3.8-1.3-8.5,1.5-6,5.1C23.1,134.6,23.3,134.7,23.3,134.7z"/>
	</g>
	<g>
		<path fill="#4F4F4F" d="M432.7,97.3c-11.2,2.8-9.4,15.1-11,24c8-5.5,15.6-19.4,12.8-23.1c0,0-0.4-0.5-0.7-0.6
			C433.5,97.4,432.7,97.3,432.7,97.3z"/>
	</g>
	<g>
		<path fill="#4F4F4F" d="M446.4,119.6c-3.1,3.8-13.7,7.9-18.8,6.5c3.3-2.7,5.8-4.8,8.8-7.7c2.1-2.1,3.4-3.5,6.1-4.5
			c3.1-1.1,7,1.2,5,4.3C446.6,119.6,446.4,119.6,446.4,119.6z"/>
	</g>
	<g>
		<path fill="#4F4F4F" d="M452.7,133.8c-3.5,4.1-10.1,4.4-14.8,3.7c3-0.6,6.2-1.8,8.7-3.7c0.9-0.8,2.4-3.4,3.1-3.4
			C452.1,129.6,453.6,131.6,452.7,133.8"/>
	</g>
	<g>
		<path fill="#4F4F4F" d="M18.5,151.2c7.4,5.7,18.8,3.9,26.4,0.9c-5.3,0.1-11.1-0.9-16.2-3.1c-1.8-1-5.3-4.8-6.6-4.7
			C18,143.9,16.1,147.8,18.5,151.2"/>
	</g>
	<g>
		<g>
			<path fill="#4F4F4F" d="M447.6,141.4c4.5,0.6,9.5,1.6,12.4-2.6c4-5.7-0.5-12.5-4.9-16.2c-0.3-0.3,2.9-2.3,3.6-3
				c1.6-1.6,2.8-4.3,3.1-6.5c0.7-6-3.3-9.5-8.8-10.7c-2.2-0.5-5.7,0.4-5.4-2.5c0.3-2.2,0.1-4.2-0.9-6.2c-1.8-3.8-6.4-5.1-10.2-5.6
				c-10.7-1.2-20.1,5.5-22.5,16c-0.1,0.4,0.5,0.6,0.6,0.2c1.9-8.4,7.9-13.8,16.2-15.3c8.8-1.6,18.3,2.8,15.5,13.1
				c-0.1,0.2,0.1,0.4,0.3,0.4c5,0.4,10.5,0.6,13.5,5.2c3.4,5.1-1.1,13.1-6.6,14.1c-0.3,0.1-0.3,0.4-0.1,0.6
				c4.6,3.5,8.1,7.8,6.8,13.9c-1.4,6.3-7.9,5.2-12.6,4.5C447.3,140.7,447.2,141.3,447.6,141.4L447.6,141.4z"/>
		</g>
	</g>
	<path fill="#A96BAD" stroke="#A86AAC" stroke-width="1.5299" stroke-miterlimit="10" d="M369.5,87.9c2.4,0,4.5,0.8,6,2.5
		c1.7,1.5,2.5,3.6,2.5,6c0,2.4-0.8,4.3-2.5,5.9c-1.7,1.7-3.6,2.5-6,2.5c-2.4,0-4.3-0.8-5.9-2.5c-1.7-1.5-2.5-3.5-2.5-5.9
		c0-2.4,0.8-4.3,2.5-6C365.2,88.7,367.1,87.9,369.5,87.9z"/>
	<g opacity="0.5">
		<g>
			<path fill="#C0BF96" d="M269.7,12c-0.8-1.5-1.6-2.7-2.5-3.8C267.1,8.1,267,8,267,7.9c-0.4-0.5-0.9-1-1.3-1.4
				C262,3,257.4,1.9,251,2.3c-3.4,0.2-7.3,0.7-9.7,3.2c-2.4,2.4-3.1,5.8-5.3,8.3l-2.2,1.3c-1.2-0.5-6.9-0.8-7.6-1.5
				c-1.9-1.9,1.2-8,1.2-10.2c-2.2,2.2-3.6,7-4.4,10.2c-3.6-0.7-3.4-7.3-5.3-9.7c-0.7,2.2-1.9,6.6,0,8c-3.6,1.2-7.8-0.2-11.2,2.2
				l-1.2,1.5c-0.2-0.2-0.2-0.5-0.5-0.7C198,3.3,179.1-4.5,167.4,7.4c-2.9,3.4-6.6,10.7-4.4,15.1c2.2,4.4,12.9,3.2,17.2,6.3l-0.3,1
				c-2.4,5.3-6.1,10.2-8.3,15.8c-2.2,5.8-3.6,11.9-4.9,17.7c-2.2,10.2-1.5,21.1-4.1,30.8l-1.9,12.6l42.3,5.7c0,0,14,0.5,17.5,0.4
				c3.8-0.1,16.5-1.4,16.5-1.4s10.2-2.5,10.6-2.7c0.4-0.1,10.8-4.7,10.8-4.7l6.4-4.6c-0.3-2.7-0.5-5.6-0.7-8.6c0-0.3,0-0.7-0.1-1
				c-0.1-1.4-0.1-2.8-0.2-4.1c0-0.5,0-1-0.1-1.5c-0.2-5.8-0.5-11.6-1.3-16.7c-1-6.1-0.7-7.7-2.2-14.3c-1.4-6-4.5-14.4-8.6-19.2
				l0.1-0.4l-3.8-5.2l4.6-0.1c2.8,0,7.5,0.8,11.4,0.8c2.2,0,4.3-0.2,5.6-1c1.2-0.8,2-2,2.4-3.3C273.2,20.6,271.3,14.9,269.7,12z
				 M217.4,43.5c0.5-5.1,0.7-9.5,7-10.4c5.6-0.7,10.9,4.9,11.9,10c2.4,12.1-20.2,17-20.4,5.3L217.4,43.5z M200,27.4
				c7.1-3.2,10.6,1.6,13.1,8.2c1.8,4.8,3.6,16.1-2.4,17.9c-6.8,2-12.8-3.2-16-8.3l-0.5-1.8C193.2,38.4,195,29.6,200,27.4z
				 M252.2,57.8c-2.4,6.8-6.6,12.9-10.2,18.9c-3.6,6.3-6.6,12.9-13.4,16.3c-8,3.9-13.1-0.5-19.2-5.6c-8.5-6.8-16.9-11.5-24.2-20.3
				c-6.1-7.5-8.9-15.7,0.4-22.5l1.5-0.5c-15.3,7.5,11.9,23.3,18.7,26.2c6.6,2.9,12.6,5.1,19.9,3.2c7.8-2.2,11.7-7.3,16.5-13.1
				c5.3-6.6,11.7-12.1,2.2-17.5C251.9,42.7,254.3,52,252.2,57.8z"/>
		</g>
	</g>
	<g opacity="0.5">
		<path fill="#C5B36E" d="M170.7,6.2c9.5,0,16.3,1.7,21.6,10.4l0.4,0.6l-0.4,0.3l-1.5,1l-3.1,2.3c0,0-2.3,1.7-2.7,2.2
			c-0.4,0.5-1.4,1.1-1.4,1.1l-3.2,4.3c-4.4-3.2-15.1-1.9-17.2-6.3c-2.2-4.4,1.5-11.7,4.4-15.1c0.3-0.3,0.6-0.7,0.9-1L170.7,6.2z"/>
	</g>
	<g opacity="0.5">
		<path fill="#C5B36E" d="M272.1,24.7c-0.4,1.4-1.1,2.5-2.4,3.3c-1.3,0.8-3.4,1.1-5.6,1c-3.9,0-8.4-0.8-11.2-0.8l-2.4-1.7l-2.7-1
			c0.5-1.7,1.2-2.9,2.7-4.1c-1,0.2-2.4,0-3.2,0.2c0-1-0.7-1.9-0.2-3.2c-1,0-2.2,0.2-2.9,1l-2.7-1c0-3.6,0.7-7.8,3.6-10.4
			c3.4-2.7,7.3-1.2,11.2-2.2c-0.2-0.5-0.2-1.2-0.2-1.7c1.7,0.2,2.9,1.5,4.6,1.9c1.5,0.2,3.2,0,4.6,0.2l0.2,0l0,0l0.3,0
			c1.4,1.4,2.6,3.1,3.8,5.3C271.4,14.7,273.3,20.6,272.1,24.7z"/>
	</g>
	<g>
		<polygon fill="#878787" points="215.8,48.1 215.9,48.1 215.8,48.4 215.8,48.3 		"/>
	</g>
	<g>
		<path fill="#7F7F7F" d="M194.8,45.2c2.1,5.6,8.9,10.4,15.6,8.4c6-1.8,4.5-13.3,2.8-18c-2.5-6.5-5.5-11.5-13.5-8
			C194.7,29.8,193,40.4,194.8,45.2z"/>
		<g>
			<path fill="#4F4F4F" d="M194.5,45.3c2.7,6.2,11,11.9,17.7,7.7c5-3.2,2.8-13.2,1.3-17.6c-2.1-6.1-6.9-12.2-14-8.2
				C193.9,30.4,192.7,39.6,194.5,45.3c0.1,0.3,0.7,0.2,0.6-0.3c-1.5-4.8-0.5-10.5,2-14.8c2-3.3,7.1-4.4,10.4-2.8
				c2.8,1.4,4.3,5.4,5.3,8.1c1.6,4,2,8.9,1.1,13.1c-1.1,5.2-6.3,5.5-10.5,4.3c-3.9-1.1-6.9-4.5-8.4-8.1
				C194.9,44.6,194.3,44.9,194.5,45.3z"/>
		</g>
	</g>
	<g>
		<path fill="#FFFFFF" d="M213.1,47.7c-4.8,8-15.3,3.8-13.3-5.3c0.8-4,5.5-9.3,10-8c4.5,1.5,4.5,6.8,4.5,10.8"/>
		<g>
			<path fill="#4F4F4F" d="M212.8,47.6c-4.6,7.2-14.2,3.4-12.7-5c0.8-4.2,5.1-8.7,9.6-7.8c4.4,0.9,4.3,7.1,4.3,10.4
				c0,0.4,0.7,0.4,0.7,0c0-4.3-0.2-9.2-4.7-11.1c-4.5-1.8-9.1,4-10.3,7.6c-1.3,3.9,0.3,8.3,4.1,10c3.8,1.7,7.6-0.7,9.6-3.9
				C213.6,47.5,213,47.2,212.8,47.6L212.8,47.6z"/>
		</g>
	</g>
	<g>
		<path fill="#FFFFFF" d="M217.1,43.6c0.5-5.1,0.7-9.5,7-10.4c5.6-0.7,10.9,4.9,11.9,10c2.4,12.1-20.2,17-20.4,5.3"/>
		<g>
			<path fill="#4F4F4F" d="M217.4,43.6c0.2-2.4,0.4-4.8,1.5-7c2.1-4.3,8.1-3.5,11.4-1.5c5.2,3.2,7.4,10.5,3.4,15.3
				c-4.3,5.1-17.2,7-17.7-2c0-0.4-0.7-0.4-0.7,0c0.7,11.2,17.3,7.2,20.6-0.4c2.4-5.4-2.1-12.8-7.4-14.6c-3.2-1.1-6.5-0.8-9.2,1.5
				c-2.3,2-2.4,5.9-2.6,8.7C216.7,44,217.3,44,217.4,43.6L217.4,43.6z"/>
		</g>
	</g>
	<g>
		<g>
			<path fill="#4F4F4F" d="M222.3,45.4c0.2,0.2,0.5,0.5,0.7,0.7c0.7,0.7,1.9-0.4,1.1-1.1c-0.2-0.2-0.5-0.5-0.7-0.7
				C222.7,43.5,221.6,44.6,222.3,45.4L222.3,45.4z"/>
		</g>
	</g>
	<g>
		<g>
			<path fill="#4F4F4F" d="M208.4,45.4c0.2,0.2,0.5,0.5,0.7,0.7c0.7,0.7,1.9-0.4,1.1-1.1c-0.2-0.2-0.5-0.5-0.7-0.7
				C208.8,43.5,207.7,44.6,208.4,45.4L208.4,45.4z"/>
		</g>
	</g>
	<g>
		<path fill="#7B7879" d="M225.1,64.7c1.2-6.3-1.7-8.3-7.5-8.5c-3.2,0-8.7-0.7-10.4,2.4c-3.6,6.3,5.1,5.1,8.3,5.1
			c3.2,0,6.8-0.5,9.7,0.5"/>
		<g>
			<path fill="#4F4F4F" d="M225.4,64.7c0.7-4-0.1-7.2-4.3-8.5c-3.2-0.9-10.6-1.6-13.3,0.9c-1.7,1.7-3.1,5.3,0,6.4
				c5.5,1.8,11.6-0.6,17.2,0.9c0.4,0.1,0.6-0.5,0.2-0.6c-3.5-0.9-7.2-0.6-10.7-0.5c-2.1,0.1-6.8,0.8-7.8-1.7c-1-2.6,2.5-4.6,4.4-5
				c1.9-0.4,3.9-0.2,5.8-0.1c5.5,0.2,8.9,2.1,7.9,8.1C224.7,65,225.3,65.2,225.4,64.7L225.4,64.7z"/>
		</g>
	</g>
	<g>
		<path fill="#FFFFFF" d="M186.7,44.3c-15.3,7.5,11.9,23.3,18.7,26.2c6.6,2.9,12.6,5.1,19.9,3.2c7.8-2.2,11.7-7.3,16.5-13.1
			c5.3-6.6,10.9-14.2,3.3-17.2c7.5-0.2,8.9,8.7,6.7,14.5c-2.4,6.8-6.6,12.9-10.2,18.9c-3.6,6.3-6.6,12.9-13.4,16.3
			c-8,3.9-13.1-0.5-19.2-5.6c-8.5-6.8-16.9-11.5-24.2-20.3C178.8,59.8,176,49.4,186.7,44.3"/>
		<g>
			<path fill="#4F4F4F" d="M186.5,44.1c-13.7,7.3,6.7,20.2,13.1,23.9c7.8,4.5,16.6,8.1,25.7,6c9.5-2.1,17.1-12.5,21.9-20.4
				c1.6-2.6,2.6-5.7,1-8.4c-0.2-0.3-0.5-0.6-0.8-0.9c-3.4-2.4,3.6,1.9,2.3,0.9c2.4,1.9,2.7,5.6,2.6,8.4c-0.3,7-5.7,14.2-9.2,20
				c-3.3,5.4-6,11.3-10.5,15.9c-7.3,7.4-15.3,4.4-22.2-1.2c-5.1-4.2-10.5-7.9-15.7-11.9c-8.9-7-23.8-23.5-7.9-31.8
				C187.2,44.4,186.9,43.9,186.5,44.1c-11,5.8-7.5,16.9-0.8,24.8c5.1,5.9,11.6,10.4,17.8,14.9c4.8,3.5,11,10.7,17.5,11.1
				c6.2,0.4,11.2-3.3,14.9-8c4.8-6.1,8.6-13.8,12.4-20.6c3.6-6.3,9.5-22.8-3.2-23.2c-0.3,0-0.5,0.5-0.2,0.6
				c10.1,4.8-6.4,20.9-11,25.1c-9,8.1-20.6,5.4-30.5,0.5c-6.6-3.2-30.5-17.3-16.6-24.7C187.2,44.4,186.9,43.9,186.5,44.1L186.5,44.1
				z"/>
		</g>
	</g>
	<g>
		<g>
			<g>
				<path fill="#4F4F4F" d="M251.7,57.8c-1.1,1.7-1.9,2.8-2.9,4.8c-0.1,0.3-0.4,0.7-0.6,1.2c-0.1,0.3-0.3,0.5-0.4,0.8
					c-0.2,0.5-0.5,0.9-0.8,1.4c-0.3,0.5-0.6,1-0.9,1.6c-1.2,2.1-2.6,4.4-4.1,6.8c-1.5,2.4-2.8,4.9-4.2,7.3c-1.4,2.4-2.9,4.6-4.5,6.4
					c-1.6,1.8-3.5,3.1-5.1,4c-1.7,0.9-3.2,1.2-4.2,1.4c-0.5,0-0.9,0.1-1.2,0.1c-0.3,0-0.4,0-0.4,0s-0.6,0-1.6-0.1
					c-1-0.2-2.5-0.6-4.1-1.6c-1.7-0.9-3.5-2.3-5.4-3.9c-1.9-1.7-4.1-3.3-6.4-5c-2.2-1.7-4.6-3.3-6.8-5c-2.2-1.7-4.3-3.4-6.1-5
					c-1.1-1-2-1.9-2.5-2.3c-1.6-1.6-2.7-2.4-4.3-3.6c0.9,1.8,1.6,3,3.3,4.7c0.4,0.5,1.4,1.4,2.5,2.4c1.8,1.6,3.9,3.4,6.1,5
					c2.2,1.7,4.5,3.4,6.8,5c2.2,1.7,4.4,3.3,6.3,4.9c1.9,1.6,3.8,3.1,5.6,4.1c1.8,1,3.4,1.5,4.6,1.8c0.6,0.1,1.1,0.2,1.4,0.2
					c0.3,0,0.5,0,0.5,0s0.2,0,0.5,0c0.3,0,0.8-0.1,1.4-0.1c1.2-0.2,2.9-0.6,4.7-1.6c1.8-0.9,3.8-2.4,5.6-4.3
					c1.8-1.9,3.3-4.3,4.7-6.7c1.4-2.4,2.7-5,4.2-7.3c1.4-2.4,2.9-4.7,4.1-6.8c0.3-0.5,0.6-1.1,0.9-1.6c0.3-0.5,0.5-1,0.8-1.5
					c0.2-0.3,0.3-0.6,0.4-0.9c0.3-0.5,0.5-1,0.6-1.3C251.2,61.1,251.5,59.8,251.7,57.8z"/>
			</g>
		</g>
	</g>
	<g>
		<g>
			<path fill="#4F4F4F" d="M184.3,55.9c-0.1,5.9,1.6,12.4,5.7,16.9c0.1,0.2,0.4,0.1,0.5-0.1c0.8-1.4,1.3-2.9,1.7-4.5
				c0.2-0.7,0.4-1.4,0.6-2.2c0.5-1.8,2.3,3,2.2,2.8c1.1,3.6,1.5,7.4,3.7,10.6c0.2,0.2,0.5,0.2,0.6-0.1c0.9-3.5,0.3-7.2,2.3-10.4
				c0.2-0.4-0.3-0.7-0.6-0.3c-0.8,1.2-1.3,2.4-1.5,3.9c-0.2,1.8,0.3,8.6-1.8,3.7c-1.7-4-2-8.4-4-12.3c-0.1-0.2-0.4-0.2-0.5-0.1
				c-0.6,0.6-0.8,1.2-1.1,2c-0.2,0.5-1.4,7-3.1,4.7c-3-4-4.1-9.8-4-14.7C184.9,55.4,184.3,55.4,184.3,55.9L184.3,55.9z"/>
		</g>
	</g>
	<g>
		<g>
			<path fill="#4F4F4F" d="M201.7,69.7c1.5,5.3,3.7,10.3,6.3,15.1c0.1,0.2,0.5,0.2,0.6-0.1c0.4-2.1,0.8-4.1,1.3-6.1
				c0.3-1.2,0.7-2.3,1.3-3.4c0.1-0.1,1.7,4,1.8,4.3c1.3,4.2,2.4,8.4,5.2,11.9c0.2,0.2,0.5,0.1,0.5-0.1c1-4.8,2.6-9.5,4.3-14.1
				c0.6-1.7,2.8,3.6,3.2,4.4c1.4,3,2.7,6,4.5,8.8c0.2,0.2,0.5,0.2,0.6-0.1c1.6-4.2,1.5-8.6,1.3-13c0-1-0.9-6.5,1.2-4.7
				c2.3,1.9,4.3,4.2,6.4,6.3c0.2,0.2,0.5,0.1,0.5-0.1c1-3.4,0.9-6.8,0.6-10.3c0-0.3-0.5-5.4,0.3-5c1.9,0.9,3.6,2.5,5,4.1
				c0.2,0.2,0.5,0.1,0.5-0.1c0.4-2,0.4-4,0.1-6c-0.1-0.4-0.9-5.4-0.3-5.3c1.4,0.2,2.8,1,4,1.7c0.4,0.2,0.7-0.3,0.3-0.6
				c-1.6-1-3.3-1.7-5.1-1.9c-0.2,0-0.4,0.1-0.4,0.3c0.3,3,0.9,5.9,1.1,9c0.2,3.4-1.8,0.6-2.7-0.1c-1-0.8-2.1-1.4-3.3-2
				c-0.2-0.1-0.5,0-0.5,0.3c-0.1,4.9,0.9,9.8,0,14.6c-0.2,1-3.9-2.9-4.2-3.2c-1.2-1.2-2.4-2.3-3.7-3.2c-0.2-0.1-0.4,0-0.5,0.2
				c-1.5,5.2,0.4,11.4-0.7,16.9c-0.7,3.5-3.6-4.1-4.1-5.3c-1.1-2.4-2.1-5-3.9-7.1c-0.1-0.2-0.4-0.1-0.5,0.1c-1.8,3.9-3,8.3-4.1,12.5
				c-0.4,1.4-0.1,3.5-1.8,0.8c-1.3-2-2-4.4-2.7-6.6c-0.9-2.7-1.6-5.5-2.8-8.1c-0.1-0.2-0.4-0.2-0.6,0c-1.6,2.5-2.2,5.4-2.8,8.3
				c-0.6,2.7-1.8-1.6-2.3-2.7c-1.6-3.2-2.8-6.6-3.8-10.1C202.2,69.1,201.6,69.3,201.7,69.7L201.7,69.7z"/>
		</g>
	</g>
	<g>
		<g>
			<path fill="#4F4F4F" d="M192.3,16.5c-5.2-8.1-12.6-10.5-21.9-10.6c-0.4,0-0.4,0.6,0,0.7c9.1,0.1,16.2,2.3,21.3,10.3
				C192,17.2,192.5,16.8,192.3,16.5L192.3,16.5z"/>
		</g>
	</g>
	<g>
		<g>
			<path fill="#4F4F4F" d="M248,25.7c0.5-1.6,1.3-2.9,2.6-4c0.3-0.2,0-0.6-0.3-0.5c-1,0.2-2.1,0-3.2,0.2c0.1,0.1,0.3,0.2,0.4,0.3
				c-0.1-1.1-0.6-2-0.3-3.1c0.1-0.2-0.1-0.4-0.3-0.4c-1.2,0-2.2,0.3-3.1,1.1c-0.3,0.3,0.1,0.7,0.5,0.5c0.8-0.7,1.7-0.8,2.7-0.9
				c-0.1-0.1-0.2-0.3-0.3-0.4c-0.3,1.2,0.1,2.1,0.2,3.2c0,0.2,0.2,0.4,0.4,0.3c1-0.2,2.1-0.1,3.2-0.2c-0.1-0.2-0.2-0.4-0.3-0.5
				c-1.4,1.2-2.2,2.5-2.8,4.3C247.2,25.9,247.9,26.1,248,25.7L248,25.7z"/>
		</g>
	</g>
	<g>
		<g>
			<path fill="#4F4F4F" d="M241.7,18.6c0.1-4.6,1-9.5,6-11.5c2.5-1,5.8-0.4,8.5-0.9c0.2,0,0.3-0.2,0.2-0.4c-0.3-1.3,3.7,0.5,4,0.6
				c1.2,0.5,3.4,0.2,4.7,0.3c0.4,0,0.4-0.6,0-0.7c-3.3-0.3-6-1.3-9.1-2.2c-0.2-0.1-0.4,0.1-0.4,0.3c0.1,2.4-3.5,1.8-5.2,1.8
				c-2.1,0.1-3.8,0.7-5.6,1.8c-3.2,2-3.7,7.4-3.8,10.7C241,19,241.7,19,241.7,18.6L241.7,18.6z"/>
		</g>
	</g>
	<g>
		<path fill="#4F4F4F" d="M169.3,74.7c-1.8,1.1-1.5-3-0.5-5.6c0-1.2,0.3-2.4,1-3.1C170.5,67.4,171,73.5,169.3,74.7z"/>
	</g>
	<g>
		<path fill="#4F4F4F" d="M257.6,72c0.2,1.5,0.5,2.2,2.2,1.7c3.2-8.5-8.3,0.2-1.5,1.5c5.1,0.7-1-9-0.2-2.2c0-0.7,0-1.7,0-2.4"/>
	</g>
	<g>
		<path fill="#4F4F4F" d="M168.7,86.5C168.8,86.5,168.8,86.5,168.7,86.5c0.3-1.4,1.3-2.7,3-1.3C176.6,89.6,164,91.2,168.7,86.5z"/>
	</g>
	<g>
		<path fill="#4F4F4F" d="M209.8,18.8c-2.7-0.5,1.4-3.8,0.8-1.1C210.7,18.3,210.7,18.9,209.8,18.8z"/>
	</g>
	<g>
		<path fill="#4F4F4F" d="M254.2,81.6c-2.7-0.5,1.5-3.8,0.8-1.1C255.1,81.1,255.1,81.8,254.2,81.6z"/>
	</g>
	<g>
		<path fill="#4F4F4F" d="M218.7,20.9c0.1,3.3-2.7-0.8-0.8-0.7c0,0,0.2,0.1,0.4,0.2"/>
	</g>
	<g>
		<path fill="#4F4F4F" d="M226.9,16.4c-0.3-0.3-0.6-0.5-0.9-0.3c-0.5-0.1-2,3.9,1.6,2.6c2.6-1.1,0.5-1.6-0.3-2"/>
	</g>
	<g>
		<path fill="#4F4F4F" d="M174.2,79.5c-0.3-0.3-0.6-0.5-0.9-0.3c-0.5-0.1-2,3.9,1.6,2.6c2.6-1.1,0.5-1.6-0.3-2"/>
	</g>
	<g>
		<path fill="#4F4F4F" d="M258.1,85.4"/>
	</g>
	<g>
		<path fill="#4F4F4F" d="M260.7,89.3c-0.2,1.5-0.9,3.1-2.8,1.9c-0.4-0.3-0.6-0.9-0.8-1.6c-0.1-0.2-0.1-0.4-0.2-0.6
			c-0.3-1.2-0.2-2.2,0.2-2.9c0.1-0.5,0.2-0.9,0.4-1.2c0.4-1.7,1.5-2.5,3.1-0.5C261.7,85.9,261.4,87.9,260.7,89.3z"/>
	</g>
	<g>
		<path fill="#7F7F7F" d="M230.1,53.5c4.8-2.9,4.6-12.9,2.1-17.3c2,1.9,3.4,4.4,3.9,6.9C237,47.8,234,51.5,230.1,53.5z"/>
	</g>
	<g>
		<g>
			<path fill="#4F4F4F" d="M231.9,36.2c2.7,4.8,3.1,14.1-2.3,17.3c-0.2,0.1,0,0.4,0.2,0.3c5.5-3.3,5.1-12.8,2.4-17.7
				C232.1,35.9,231.8,36,231.9,36.2L231.9,36.2z"/>
		</g>
	</g>
	<g>
		<g>
			<path fill="#4F4F4F" d="M264.9,99.2c-2.1,1.8-4.3,3.5-6.4,5.3c-2,1.6-5.6,2.5-7.9,3.5c-4.7,2-10.3,3.9-15.4,3.9
				c-12.5,0-24.6-0.1-36.9-2.7c-7.5-1.6-15.1-3.3-22.6-4.9c-1.5-0.3-13.4-3-13.5-2.8c1.4-9.1,3.4-17.9,4.1-27
				c0.6-8,2.1-15.7,4.2-23.4c2.2-8.1,6.6-14.8,10.2-22.3c0.1-0.2,0-0.5-0.3-0.5c-1.2,0-3.6-1.5-4.9-1.8c-2.6-0.6-5.4-0.9-8-1.6
				c-10.7-2.7-1.7-16.9,3.7-20.4c11.5-7.4,27.1,1.1,33.7,11c0.1,0.2,0.4,0.2,0.5,0.1c3.1-3.8,8-2.5,12.2-3.6
				c0.3-0.1,0.3-0.4,0.1-0.5c-1.7-1.9-0.8-4.6-0.2-6.8c0,0,1.5,3.8,1.7,4.6c0.6,2,1.5,3.7,3.5,4.4c0.2,0.1,0.4-0.1,0.4-0.2
				c0.7-2.8,1.5-5.5,2.8-8.1c1.2-2.4,0.1,1,0.1,1.2c-0.3,1.1-0.6,2.2-0.9,3.3c-0.2,1.1-0.4,3.5,1.1,4c2.4,0.8,5.7,1.5,8.2,1.5
				c2.1,0,3.9-5,4.5-6.3c3.4-7.4,13.3-7.6,20.2-5.9c6.3,1.5,10.2,7.9,11.9,13.7c0.8,2.6,1,5.3,0.4,7.9c-1.1,5.1-8.1,4.2-12,3.9
				c-3.9-0.3-7.5-0.5-11.4-0.4c-0.2,0-0.4,0.3-0.3,0.5c6.9,9.3,12.1,18.5,13.6,30.2c1.7,13.5,1.3,27.2,3.3,40.7
				c0.1,0.4,0.7,0.2,0.6-0.2c-2.8-18.7,0.2-38.8-7.7-56.6c-1.5-3.4-3.4-6.5-5.6-9.5c-0.8-1.1-1.6-2.1-2.4-3.2
				c-0.3-0.4-0.6-0.9-0.9-1.3c-0.4-0.6-0.8,0,0.2-0.1c3.6-0.1,7,0.1,10.5,0.4c2.8,0.3,7.7,1.1,10.2-0.9c4.4-3.5,2.9-10.5,0.9-15
				c-3.1-6.7-7.9-10.8-15.2-11.5c-3.5-0.4-8.8-0.3-12.1,1.5c-3.8,2.1-4.7,5.6-6.8,9.2c-1.9,3.3-5.4,1.6-8.6,1.1
				c-4.5-0.8-0.7-7.7-0.4-10.5c0-0.3-0.4-0.4-0.6-0.2c-2.2,2.6-3.2,5.8-4.1,9.1c-1.8-0.2-2.8-1.2-3-3c-0.2-0.7-0.4-1.4-0.6-2.1
				c-0.4-1.3-0.8-2.4-1.5-3.5c-0.2-0.2-0.5-0.2-0.6,0.1c-0.7,2.2-1.8,5.4-0.6,7.6c0.3,0.5-5.7,0.9-6.2,0.9c-1.6,0.1-2.9,0.7-4.2,1.5
				c-1.3,0.7-0.7,1.8-1.9-0.1c-0.8-1.3-1.9-2.5-3-3.6c-2.6-2.7-5.9-4.6-9.2-6.1c-12.9-5.9-28.9-0.3-30.2,15.2
				c-0.6,6.7,7.5,7.1,12.2,8c2.1,0.4,4.1,0.9,5.9,2c0,0-2,3.6-2.3,4.2c-2.6,4.7-5.1,9.2-6.8,14.3C167,58.6,166,70,164.9,81.8
				c-0.6,6.6-2.4,13.1-3.5,19.7c0,0.2,0,0.4,0.2,0.4c16.8,3.6,33.6,8.4,50.7,10.1c10.2,1.1,21.1,1.5,31-1c4.5-1.1,8.4-2.8,12.6-4.7
				c3.6-1.6,6.3-4.1,9.3-6.6C265.7,99.4,265.2,98.9,264.9,99.2z"/>
		</g>
	</g>
	<g>
		<g>
			<path fill="none" d="M144.6,100.1l8.7,4l7.6,2.1l42.3,5.7c0,0,14,0.5,17.5,0.4c3.8-0.1,16.5-1.4,16.5-1.4s10.2-2.5,10.6-2.7
				c0.4-0.1,10.8-4.7,10.8-4.7l6.4-4.6l3.5-2.7"/>
			<g>
				<g>
					<g opacity="0.85">
						<g>
							<path fill="#4F4F4F" d="M259.2,101.4c-0.3,0.2-0.7,0.5-1,0.7c0.2,0,0.4-0.1,0.7-0.1C259.1,101.9,259.1,101.7,259.2,101.4z"/>
							<path fill="#4F4F4F" d="M257.3,102.5c-0.1,0-0.1,0.1-0.2,0.1c-0.1,0.1-0.1,0.1-0.1,0.2L257.3,102.5z"/>
							<path fill="#4F4F4F" d="M255.4,103.6c0.4-0.1,0.7-0.3,1-0.5C256.1,103.2,255.7,103.3,255.4,103.6z"/>
							<path fill="#4F4F4F" d="M257.1,103.1c-0.2-0.1-0.3-0.2-0.1-0.4l0,0c-0.2,0.1-0.4,0.3-0.6,0.4
								C256.6,103,256.8,103,257.1,103.1z"/>
							<path fill="#4F4F4F" d="M257.1,103.1c0.2,0.1,0.4,0.1,0.5,0.1C257.4,103.2,257.2,103.1,257.1,103.1z"/>
							<path fill="#4F4F4F" d="M257.8,106.4c-0.2,0.2-0.5-0.7-0.8-0.3c-0.9,0.7-1.6,1.4-2.5,1.8c-0.3,0.4-1.4-0.3-1.7,0.1
								c-0.9,0.7-3,3-1.5,2.3c2.2-1.1,3.6-2,5.5-3c0.7-0.5,1.5-1.1,2.2-1.6c0.2-0.2,0.5-0.3,0.7-0.5c0.2-0.2,0.4-0.4,0.6-0.6
								c0.3-0.3,0.6-0.7,0.9-1c0.4-0.3,0.8-0.5,1.2-0.8c-0.6,0.2-1.2,0.5-1.8,0.8c-0.5,0.2-0.7,0.6-1.1,1.3
								c-0.1,0.2-0.3,0.3-0.4,0.5c-0.1,0.1-0.3,0.3-0.4,0.4C258.4,105.9,258.2,106.2,257.8,106.4z"/>
							<path fill="#4F4F4F" d="M267.2,96.3c-0.1,0.2-0.3,0.7-0.3,0.7c-1.2,0.1-1.9,0.9-2.6,1.8c0.2,0,0.4,0.1,0.7,0.1
								c0.4-0.4,0.3-0.7-0.2-0.5c1.3-0.3,2.3-0.9,3.2-1.7C267.7,96.4,267.5,96.2,267.2,96.3z"/>
							<path fill="#4F4F4F" d="M268.4,96.1c-0.2,0.2-0.3,0.3-0.5,0.5l0.1,0C268.1,96.4,268.3,96.2,268.4,96.1L268.4,96.1z"/>
							<path fill="#4F4F4F" d="M251.3,106.3c-1.4,0.6-2.7,1.2-4,1.7c-1.4,0.3-2.7,0.6-4.1,0.9c-0.2,0.2-0.2,0.5-0.5,0.4
								c-0.3-0.1-0.5-0.2-0.7-0.2c-0.4,0.1-0.8,0.2-1.2,0.2c-0.1,0.1-0.3,0.1-0.4,0.2l0,0c-0.2,0.2-0.1,0.3,0.1,0.4
								c0.2,0.1,0.3,0.1,0.5,0.2c-0.1-0.1-0.3-0.1-0.5-0.2c-0.2-0.1-0.4-0.1-0.7-0.1c-0.3,0.1-0.7,0.3-1.1,0.3
								c0.4-0.2,0.8-0.3,1.1-0.3c0.2-0.1,0.4-0.2,0.6-0.3l0.2-0.1c-0.9,0.2-1.8,0.4-2.7,0.5c-0.2,0.1-0.4,0.1-0.5,0.2
								c-0.5,0.3-1.2,0.4-1.7,0c-0.2,0-0.3,0-0.5,0c0,0,0.1,0,0.1,0.1c-0.1,0-0.1,0-0.2-0.1c-0.7,0-1.4,0.1-2.1,0.1
								c-0.4,0.2-0.9,0.5-1.3,0.7c0,0-0.3-0.3-0.5-0.4c-0.2,0.3-0.4,0.4-0.7,0.5c0.4,0.2,0.8,0.5,1.1,0.7c0.5,0.4,0.9-1,1.6-0.2
								c-0.6-0.8-1.1,0.6-1.6,0.2c-0.3-0.2-0.7-0.4-1.1-0.7c-0.6,0.2-1.5,0.1-2.2-0.3c0.8-0.5,1.5-0.2,2.2,0.3
								c0.3-0.1,0.6-0.3,0.7-0.5c0.2,0.1,0.5,0.4,0.5,0.4c0.4-0.2,0.9-0.4,1.3-0.7c-1.4,0-2.7,0.1-4.1,0.1c-2.2,0.1-4.4,0.1-6.6,0.2
								c-1.1,0-2.1,0.1-3.2,0l-3.2-0.1c-2.2-0.1-4.4-0.2-6.6-0.3c-1.1-0.1-2.2-0.1-3.4-0.2c-0.6,0-1.1-0.1-1.7-0.1l-0.8-0.1
								c-0.1,0-0.2,0-0.3,0l-0.4-0.1c-5-0.9-9.7-2-14.4-3.2c-4.6-1.2-9-1.7-13.4-2.4c-2.2-0.4-4.4-0.7-6.6-1.3
								c-1.1-0.3-2.2-0.5-3.3-0.9c-0.6-0.2-1.1-0.3-1.7-0.5l-0.8-0.3L162,101c-0.1,0,0-0.1-0.1-0.1c0,0,0-0.1,0-0.1
								c-0.9-0.5-2-0.9-3.2-1.3c-0.6-0.2-1.2-0.4-1.9-0.6c-0.3-0.1-0.7-0.2-1-0.3l-0.5-0.1c0,0,0,0,0,0c-2.1-0.9-4.2-1.8-5.7-2.4
								c-5-0.6-4.4,4.1-4.3,4.4c0.5,1.8,1.3,2.8,2.5,3.5c0.6,0.4,1.2,0.7,1.9,1.2c0.4,0.2,0.7,0.4,1.1,0.7c0.4,0.3,0.7,0.5,1.5,1
								c0.2,0.1,0.5,0.2,0.7,0.3c0.2,0.1,0.4,0.2,0.5,0.3c0.4,0.2,0.7,0.5,1.1,0.7c-1.6-1-1.1-1.3,0.2-1.2c0.7,0.1,1.5,0.3,2.4,0.6
								c0.5,0.2,0.9,0.4,1.4,0.6c0.2,0.1,0.5,0.2,0.7,0.4l0.3,0.2l0.5,0.3l0.5,0.2c0.1,0.1,0.2,0.1,0.3,0.2c0.2,0.1,0.4,0.3,0.6,0.5
								c5,4.3,13.2,2.5,19.9,4.3c1.7,0.5,3.5,0.5,5.5,0.9c2.6,0.7,5.1,1.1,7.7,1.5c1.3,0.2,2.6,0.4,3.8,0.5l1.9,0.2l1,0.1l0.5,0
								c0.3,0,0.6,0.1,0.9,0.1c5.4,0,10.5-0.1,16.3,0.1c0.4,0,0.8,0,1.2-0.1c0.4,0,0.8-0.1,1.2-0.2c0.7-0.1,1.4-0.3,2.1-0.5
								c1.3-0.4,2.6-0.8,3.8-1.2c1.8-0.3,3.8,0,5.3-0.2c1.2-0.1,2.2-0.3,3.2-0.5c0.3-0.1,0.5-0.1,0.8-0.2c0.1,0,0.3-0.1,0.5-0.1
								c0.2,0,0.4-0.1,0.6-0.2c0.2-0.1,0.4-0.2,0.5-0.2l0.3-0.2l0.7-0.3c-0.3,0.1-0.5,0.2-0.8,0.3l-0.4,0.1l-0.6,0.2
								c-0.6,0.1-1.2,0.2-1.7,0.4c-0.9,0.2-1.9,0.4-3.1,0.6c-1.6,0.2,1-1.3,2-1.7c0.4-0.3,1.2,0.7,1.7,0.5c0.2,0,0.6-0.1,1-0.2
								l0.5-0.2c0.2-0.1,0.2-0.1,0.4-0.2c0.4-0.3,0.9-0.5,1.4-0.8c0.4-0.3,0.6,0.6,0.8,0.4c1.4-0.6,2.1-2,3.1-2c0.7,0,1.4-0.1,2-0.1
								c0.4,0,0.8-0.1,1.2-0.2c0.2-0.1,0.5-0.3,0.7-0.4c-0.3-0.2-0.5-0.5-0.7-0.9c0.4-0.1,1,0.1,1.3-0.1c-0.4,0.1-1,0-1.3,0.1
								c0.2,0.3,0.4,0.6,0.7,0.9c0.2-0.1,0.4-0.3,0.6-0.4c0.2-0.2,0.4-0.3,0.6-0.5c0.4-0.3,0.9-0.6,1.3-1c0.9-0.6,1.8-1.3,2.6-1.9
								l-0.1-0.1c-1.1,0.6-2.2,1-3.5,0.9c0.6,0,0.6,0.3,0,0.5l-0.6-0.3c0.9-0.7,1.8-1.3,2.9-1.1c0,0,0.3-0.4,0.5-0.6
								c0.4,0,0.4,0.3,0.6,0.5c0.2-0.1,0.4-0.2,0.6-0.4C252.9,106.2,251.3,106.3,251.3,106.3z"/>
							<path fill="#4F4F4F" d="M239.7,109.8c0.1-0.1,0.3-0.1,0.5-0.2c-0.8,0.1-1.5,0.3-2.3,0.4C238.5,110.4,239.1,110.1,239.7,109.8
								z"/>
						</g>
					</g>
				</g>
			</g>
		</g>
	</g>
	<g>
		<g>
			<path fill="none" d="M144.7,100.2l8.7,4l7.6,2.1l42.3,5.7c0,0,14,0.5,17.5,0.4c3.8-0.1,16.5-1.4,16.5-1.4s10.2-2.5,10.6-2.7
				c0.4-0.1,10.8-4.7,10.8-4.7l6.4-4.6l3.5-2.7"/>
			<g>
				<g>
					<g opacity="0.85">
						<g>
							<path fill="#4F4F4F" d="M259.3,101.5c-0.3,0.2-0.7,0.5-1,0.7c0.2,0,0.4-0.1,0.7-0.1C259.3,102,259.2,101.7,259.3,101.5z"/>
							<path fill="#4F4F4F" d="M257.4,102.5c-0.1,0-0.1,0.1-0.2,0.1c-0.1,0.1-0.1,0.1-0.1,0.2L257.4,102.5z"/>
							<path fill="#4F4F4F" d="M255.5,103.6c0.4-0.1,0.7-0.3,1-0.5C256.2,103.2,255.8,103.4,255.5,103.6z"/>
							<path fill="#4F4F4F" d="M257.2,103.1c-0.2-0.1-0.3-0.2-0.1-0.4l0,0c-0.2,0.1-0.4,0.3-0.6,0.4
								C256.7,103.1,257,103.1,257.2,103.1z"/>
							<path fill="#4F4F4F" d="M257.2,103.1c0.2,0.1,0.4,0.1,0.5,0.1C257.5,103.2,257.4,103.2,257.2,103.1z"/>
							<path fill="#4F4F4F" d="M257.9,106.4c-0.2,0.2-0.5-0.7-0.8-0.3c-0.9,0.7-1.6,1.4-2.5,1.8c-0.3,0.4-1.4-0.3-1.7,0.1
								c-0.9,0.7-3,3-1.5,2.3c2.2-1.1,3.6-2,5.5-3c0.7-0.5,1.5-1.1,2.2-1.6c0.2-0.2,0.5-0.3,0.7-0.5c0.2-0.2,0.4-0.4,0.6-0.6
								c0.3-0.3,0.6-0.7,0.9-1c0.4-0.3,0.8-0.5,1.2-0.8c-0.6,0.2-1.2,0.5-1.8,0.8c-0.5,0.2-0.7,0.6-1.1,1.3
								c-0.1,0.2-0.3,0.3-0.4,0.5c-0.1,0.1-0.3,0.3-0.4,0.4C258.5,106,258.3,106.2,257.9,106.4z"/>
							<path fill="#4F4F4F" d="M267.3,96.3c-0.1,0.2-0.3,0.7-0.3,0.7c-1.2,0.1-1.9,0.9-2.6,1.8c0.2,0,0.4,0.1,0.7,0.1
								c0.4-0.4,0.3-0.7-0.2-0.5c1.3-0.3,2.3-0.9,3.2-1.7C267.8,96.5,267.6,96.2,267.3,96.3z"/>
							<path fill="#4F4F4F" d="M268.5,96.1c-0.2,0.2-0.3,0.3-0.5,0.5l0.1,0C268.2,96.5,268.4,96.3,268.5,96.1L268.5,96.1z"/>
							<path fill="#4F4F4F" d="M251.4,106.3c-1.4,0.6-2.7,1.2-4,1.7c-1.4,0.3-2.7,0.6-4.1,0.9c-0.2,0.2-0.2,0.5-0.5,0.4
								c-0.3-0.1-0.5-0.2-0.7-0.2c-0.4,0.1-0.8,0.2-1.2,0.2c-0.1,0.1-0.3,0.1-0.4,0.2l0,0c-0.2,0.2-0.1,0.3,0.1,0.4
								c0.2,0.1,0.3,0.1,0.5,0.2c-0.1-0.1-0.3-0.1-0.5-0.2c-0.2-0.1-0.4-0.1-0.7-0.1c-0.3,0.1-0.7,0.3-1.1,0.3
								c0.4-0.2,0.8-0.3,1.1-0.3c0.2-0.1,0.4-0.2,0.6-0.3l0.2-0.1c-0.9,0.2-1.8,0.4-2.7,0.5c-0.2,0.1-0.4,0.1-0.5,0.2
								c-0.5,0.3-1.2,0.4-1.7,0c-0.2,0-0.3,0-0.5,0c0,0,0.1,0,0.1,0.1c-0.1,0-0.1,0-0.2-0.1c-0.7,0-1.4,0.1-2.1,0.1
								c-0.4,0.2-0.9,0.5-1.3,0.7c0,0-0.3-0.3-0.5-0.4c-0.2,0.3-0.4,0.4-0.7,0.5c0.4,0.2,0.8,0.5,1.1,0.7c0.5,0.4,0.9-1,1.6-0.2
								c-0.6-0.8-1.1,0.6-1.6,0.2c-0.3-0.2-0.7-0.4-1.1-0.7c-0.6,0.2-1.5,0.1-2.2-0.3c0.8-0.5,1.5-0.2,2.2,0.3
								c0.3-0.1,0.6-0.3,0.7-0.5c0.2,0.1,0.5,0.4,0.5,0.4c0.4-0.2,0.9-0.4,1.3-0.7c-1.4,0-2.7,0.1-4.1,0.1c-2.2,0.1-4.4,0.1-6.6,0.2
								c-1.1,0-2.1,0.1-3.2,0l-3.2-0.1c-2.2-0.1-4.4-0.2-6.6-0.3c-1.1-0.1-2.2-0.1-3.4-0.2c-0.6,0-1.1-0.1-1.7-0.1l-0.8-0.1
								c-0.1,0-0.2,0-0.3,0l-0.4-0.1c-5-0.9-9.7-2-14.4-3.2c-4.6-1.2-9-1.7-13.4-2.4c-2.2-0.4-4.4-0.7-6.6-1.3
								c-1.1-0.3-2.2-0.5-3.3-0.9c-0.6-0.2-1.1-0.3-1.7-0.5l-0.8-0.3l-0.4-0.2c-0.1,0,0-0.1-0.1-0.1c0,0,0-0.1,0-0.1
								c-0.9-0.5-2-0.9-3.2-1.3c-0.6-0.2-1.2-0.4-1.9-0.6c-0.3-0.1-0.7-0.2-1-0.3l-0.5-0.1c0,0,0,0,0,0c-2.1-0.9-4.2-1.8-5.7-2.4
								c-5-0.6-4.4,4.1-4.3,4.4c0.5,1.8,1.3,2.8,2.5,3.5c0.6,0.4,1.2,0.7,1.9,1.2c0.4,0.2,0.7,0.4,1.1,0.7c0.4,0.3,0.7,0.5,1.5,1
								c0.2,0.1,0.5,0.2,0.7,0.3c0.2,0.1,0.4,0.2,0.5,0.3c0.4,0.2,0.7,0.5,1.1,0.7c-1.6-1-1.1-1.3,0.2-1.2c0.7,0.1,1.5,0.3,2.4,0.6
								c0.5,0.2,0.9,0.4,1.4,0.6c0.2,0.1,0.5,0.2,0.7,0.4l0.3,0.2l0.5,0.3l0.5,0.2c0.1,0.1,0.2,0.1,0.3,0.2c0.2,0.1,0.4,0.3,0.6,0.5
								c5,4.3,13.2,2.5,19.9,4.3c1.7,0.5,3.5,0.5,5.5,0.9c2.6,0.7,5.1,1.1,7.7,1.5c1.3,0.2,2.6,0.4,3.8,0.5l1.9,0.2l1,0.1l0.5,0
								c0.3,0,0.6,0.1,0.9,0.1c5.4,0,10.5-0.1,16.3,0.1c0.4,0,0.8,0,1.2-0.1c0.4,0,0.8-0.1,1.2-0.2c0.7-0.1,1.4-0.3,2.1-0.5
								c1.3-0.4,2.6-0.8,3.8-1.2c1.8-0.3,3.8,0,5.3-0.2c1.2-0.1,2.2-0.3,3.2-0.5c0.3-0.1,0.5-0.1,0.8-0.2c0.1,0,0.3-0.1,0.5-0.1
								c0.2,0,0.4-0.1,0.6-0.2c0.2-0.1,0.4-0.2,0.5-0.2l0.3-0.2l0.7-0.3c-0.3,0.1-0.5,0.2-0.8,0.3l-0.4,0.1l-0.6,0.2
								c-0.6,0.1-1.2,0.2-1.7,0.4c-0.9,0.2-1.9,0.4-3.1,0.6c-1.6,0.2,1-1.3,2-1.7c0.4-0.3,1.2,0.7,1.7,0.5c0.2,0,0.6-0.1,1-0.2
								l0.5-0.2c0.2-0.1,0.2-0.1,0.4-0.2c0.4-0.3,0.9-0.5,1.4-0.8c0.4-0.3,0.6,0.6,0.8,0.4c1.4-0.6,2.1-2,3.1-2c0.7,0,1.4-0.1,2-0.1
								c0.4,0,0.8-0.1,1.2-0.2c0.2-0.1,0.5-0.3,0.7-0.4c-0.3-0.2-0.5-0.5-0.7-0.9c0.4-0.1,1,0.1,1.4-0.1c-0.4,0.1-1,0-1.4,0.1
								c0.2,0.3,0.4,0.6,0.7,0.9c0.2-0.1,0.4-0.3,0.6-0.4c0.2-0.2,0.4-0.3,0.6-0.5c0.4-0.3,0.9-0.6,1.3-1c0.9-0.6,1.8-1.3,2.6-1.9
								l-0.1-0.1c-1.1,0.6-2.2,1-3.5,0.9c0.6,0,0.6,0.3,0,0.5l-0.6-0.3c0.9-0.7,1.8-1.3,2.9-1.1c0,0,0.3-0.4,0.5-0.6
								c0.4,0,0.4,0.3,0.6,0.5c0.2-0.1,0.4-0.2,0.6-0.4C253.1,106.3,251.4,106.3,251.4,106.3z"/>
							<path fill="#4F4F4F" d="M239.9,109.9c0.1-0.1,0.3-0.1,0.5-0.2c-0.8,0.1-1.5,0.3-2.3,0.4C238.6,110.5,239.2,110.2,239.9,109.9
								z"/>
						</g>
					</g>
				</g>
			</g>
		</g>
	</g>
</g>
</svg>
